<?xml version="1.0" encoding="UTF-8" standalone="no"?>
<!DOCTYPE svg PUBLIC "-//W3C//DTD SVG 1.1//EN"
 "http://www.w3.org/Graphics/SVG/1.1/DTD/svg11.dtd">
<!-- Generated by graphviz version 7.1.0 (20230121.1956)
 -->
<!-- Title: dependency&#45;cruiser output Pages: 1 -->
<svg width="424pt" height="200pt"
 viewBox="0.00 0.00 424.00 200.00" xmlns="http://www.w3.org/2000/svg" xmlns:xlink="http://www.w3.org/1999/xlink">
<g id="graph0" class="graph" transform="scale(1 1) rotate(0) translate(4 196)">
<title>dependency&#45;cruiser output</title>
<polygon fill="white" stroke="none" points="-4,4 -4,-196 420,-196 420,4 -4,4"/>
<g id="clust1" class="cluster">
<title>cluster_src</title>
<path fill="#ffffff" stroke="black" stroke-width="2" d="M20,-8C20,-8 396,-8 396,-8 402,-8 408,-14 408,-20 408,-20 408,-172 408,-172 408,-178 402,-184 396,-184 396,-184 20,-184 20,-184 14,-184 8,-178 8,-172 8,-172 8,-20 8,-20 8,-14 14,-8 20,-8"/>
<text text-anchor="middle" x="208" y="-172.8" font-family="Helvetica,sans-Serif" font-weight="bold" font-size="9.00">src</text>
</g>
<g id="clust2" class="cluster">
<title>cluster_src/components</title>
<path fill="#ffffff" stroke="black" stroke-width="2" d="M158,-16C158,-16 388,-16 388,-16 394,-16 400,-22 400,-28 400,-28 400,-146 400,-146 400,-152 394,-158 388,-158 388,-158 158,-158 158,-158 152,-158 146,-152 146,-146 146,-146 146,-28 146,-28 146,-22 152,-16 158,-16"/>
<text text-anchor="middle" x="273" y="-146.8" font-family="Helvetica,sans-Serif" font-weight="bold" font-size="9.00">components</text>
</g>
<g id="clust3" class="cluster">
<title>cluster_src/components/form</title>
<path fill="#ffffff" stroke="black" stroke-width="2" d="M253,-24C253,-24 380,-24 380,-24 386,-24 392,-30 392,-36 392,-36 392,-94 392,-94 392,-100 386,-106 380,-106 380,-106 253,-106 253,-106 247,-106 241,-100 241,-94 241,-94 241,-36 241,-36 241,-30 247,-24 253,-24"/>
<text text-anchor="middle" x="316.5" y="-94.8" font-family="Helvetica,sans-Serif" font-weight="bold" font-size="9.00">form</text>
</g>
<!-- src/App.jsx -->
<g id="node1" class="node">
<title>src/App.jsx</title>
<g id="a_node1"><a xlink:href="src/App.jsx" xlink:title="App.jsx">
<path fill="#ffff77" stroke="black" d="M131.5,-105C131.5,-105 89.5,-105 89.5,-105 86.5,-105 83.5,-102 83.5,-99 83.5,-99 83.5,-93 83.5,-93 83.5,-90 86.5,-87 89.5,-87 89.5,-87 131.5,-87 131.5,-87 134.5,-87 137.5,-90 137.5,-93 137.5,-93 137.5,-99 137.5,-99 137.5,-102 134.5,-105 131.5,-105"/>
<text text-anchor="start" x="95" y="-93.8" font-family="Helvetica,sans-Serif" font-size="9.00">App.jsx</text>
</a>
</g>
</g>
<!-- src/components/Bucket.jsx -->
<g id="node2" class="node">
<title>src/components/Bucket.jsx</title>
<g id="a_node2"><a xlink:href="src/components/Bucket.jsx" xlink:title="Bucket.jsx">
<path fill="#ffff77" stroke="black" d="M216.5,-126C216.5,-126 170.5,-126 170.5,-126 167.5,-126 164.5,-123 164.5,-120 164.5,-120 164.5,-114 164.5,-114 164.5,-111 167.5,-108 170.5,-108 170.5,-108 216.5,-108 216.5,-108 219.5,-108 222.5,-111 222.5,-114 222.5,-114 222.5,-120 222.5,-120 222.5,-123 219.5,-126 216.5,-126"/>
<text text-anchor="start" x="172.5" y="-114.8" font-family="Helvetica,sans-Serif" font-size="9.00">Bucket.jsx</text>
</a>
</g>
</g>
<!-- src/App.jsx&#45;&gt;src/components/Bucket.jsx -->
<g id="edge1" class="edge">
<title>src/App.jsx&#45;&gt;src/components/Bucket.jsx</title>
<path fill="none" stroke="#000000" stroke-width="2" stroke-opacity="0.200000" d="M137.57,-102.76C143.29,-104.24 149.45,-105.84 155.5,-107.41"/>
<polygon fill="#000000" fill-opacity="0.200000" stroke="#000000" stroke-width="2" stroke-opacity="0.200000" points="154.97,-109.44 161.3,-108.91 156.02,-105.37 154.97,-109.44"/>
</g>
<!-- src/components/BucketForm.jsx -->
<g id="node3" class="node">
<title>src/components/BucketForm.jsx</title>
<g id="a_node3"><a xlink:href="src/components/BucketForm.jsx" xlink:title="BucketForm.jsx">
<path fill="#ffff77" stroke="black" d="M227,-85C227,-85 160,-85 160,-85 157,-85 154,-82 154,-79 154,-79 154,-73 154,-73 154,-70 157,-67 160,-67 160,-67 227,-67 227,-67 230,-67 233,-70 233,-73 233,-73 233,-79 233,-79 233,-82 230,-85 227,-85"/>
<text text-anchor="start" x="162" y="-73.8" font-family="Helvetica,sans-Serif" font-size="9.00">BucketForm.jsx</text>
</a>
</g>
</g>
<!-- src/App.jsx&#45;&gt;src/components/BucketForm.jsx -->
<g id="edge2" class="edge">
<title>src/App.jsx&#45;&gt;src/components/BucketForm.jsx</title>
<path fill="none" stroke="#000000" stroke-width="2" stroke-opacity="0.200000" d="M137.57,-89.56C140.13,-88.93 142.77,-88.28 145.45,-87.62"/>
<polygon fill="#000000" fill-opacity="0.200000" stroke="#000000" stroke-width="2" stroke-opacity="0.200000" points="145.83,-89.69 151.15,-86.21 144.82,-85.61 145.83,-89.69"/>
</g>
<!-- src/components/Button.jsx -->
<g id="node4" class="node">
<title>src/components/Button.jsx</title>
<g id="a_node4"><a xlink:href="src/components/Button.jsx" xlink:title="Button.jsx">
<path fill="#ffff77" stroke="black" d="M298,-132C298,-132 254,-132 254,-132 251,-132 248,-129 248,-126 248,-126 248,-120 248,-120 248,-117 251,-114 254,-114 254,-114 298,-114 298,-114 301,-114 304,-117 304,-120 304,-120 304,-126 304,-126 304,-129 301,-132 298,-132"/>
<text text-anchor="start" x="256" y="-120.8" font-family="Helvetica,sans-Serif" font-size="9.00">Button.jsx</text>
</a>
</g>
</g>
<!-- src/components/Bucket.jsx&#45;&gt;src/components/Button.jsx -->
<g id="edge3" class="edge">
<title>src/components/Bucket.jsx&#45;&gt;src/components/Button.jsx</title>
<path fill="none" stroke="#000000" stroke-width="2" stroke-opacity="0.200000" d="M222.65,-119.1C227.83,-119.48 233.29,-119.89 238.66,-120.29"/>
<polygon fill="#000000" fill-opacity="0.200000" stroke="#000000" stroke-width="2" stroke-opacity="0.200000" points="238.38,-122.38 244.52,-120.73 238.69,-118.19 238.38,-122.38"/>
</g>
<!-- src/components/form/index.js -->
<g id="node5" class="node">
<title>src/components/form/index.js</title>
<g id="a_node5"><a xlink:href="src/components/form/index.js" xlink:title="index.js">
<path fill="#ffffcc" stroke="black" d="M297,-80C297,-80 255,-80 255,-80 252,-80 249,-77 249,-74 249,-74 249,-68 249,-68 249,-65 252,-62 255,-62 255,-62 297,-62 297,-62 300,-62 303,-65 303,-68 303,-68 303,-74 303,-74 303,-77 300,-80 297,-80"/>
<text text-anchor="start" x="260" y="-68.8" font-family="Helvetica,sans-Serif" font-size="9.00">index.js</text>
</a>
</g>
</g>
<!-- src/components/BucketForm.jsx&#45;&gt;src/components/form/index.js -->
<g id="edge4" class="edge">
<title>src/components/BucketForm.jsx&#45;&gt;src/components/form/index.js</title>
<path fill="none" stroke="#000000" stroke-width="2" stroke-opacity="0.200000" d="M233.34,-73.59C235.43,-73.46 237.52,-73.33 239.6,-73.2"/>
<polygon fill="#000000" fill-opacity="0.200000" stroke="#000000" stroke-width="2" stroke-opacity="0.200000" points="239.65,-75.3 245.51,-72.83 239.39,-71.11 239.65,-75.3"/>
</g>
<!-- src/components/form/Slider.jsx -->
<g id="node6" class="node">
<title>src/components/form/Slider.jsx</title>
<g id="a_node6"><a xlink:href="src/components/form/Slider.jsx" xlink:title="Slider.jsx">
<path fill="#ffff77" stroke="black" d="M371.5,-50C371.5,-50 329.5,-50 329.5,-50 326.5,-50 323.5,-47 323.5,-44 323.5,-44 323.5,-38 323.5,-38 323.5,-35 326.5,-32 329.5,-32 329.5,-32 371.5,-32 371.5,-32 374.5,-32 377.5,-35 377.5,-38 377.5,-38 377.5,-44 377.5,-44 377.5,-47 374.5,-50 371.5,-50"/>
<text text-anchor="start" x="331.5" y="-38.8" font-family="Helvetica,sans-Serif" font-size="9.00">Slider.jsx</text>
</a>
</g>
</g>
<!-- src/components/form/index.js&#45;&gt;src/components/form/Slider.jsx -->
<g id="edge5" class="edge">
<title>src/components/form/index.js&#45;&gt;src/components/form/Slider.jsx</title>
<path fill="none" stroke="#000000" stroke-width="2" stroke-opacity="0.200000" d="M299.94,-61.51C305.87,-59.05 312.36,-56.37 318.62,-53.78"/>
<polygon fill="#000000" fill-opacity="0.200000" stroke="#000000" stroke-width="2" stroke-opacity="0.200000" points="319.42,-55.72 324.16,-51.49 317.81,-51.84 319.42,-55.72"/>
</g>
<!-- src/components/form/TextInput.jsx -->
<g id="node7" class="node">
<title>src/components/form/TextInput.jsx</title>
<g id="a_node7"><a xlink:href="src/components/form/TextInput.jsx" xlink:title="TextInput.jsx">
<path fill="#ffff77" stroke="black" d="M378,-80C378,-80 323,-80 323,-80 320,-80 317,-77 317,-74 317,-74 317,-68 317,-68 317,-65 320,-62 323,-62 323,-62 378,-62 378,-62 381,-62 384,-65 384,-68 384,-68 384,-74 384,-74 384,-77 381,-80 378,-80"/>
<text text-anchor="start" x="325" y="-68.8" font-family="Helvetica,sans-Serif" font-size="9.00">TextInput.jsx</text>
</a>
</g>
</g>
<!-- src/components/form/index.js&#45;&gt;src/components/form/TextInput.jsx -->
<g id="edge6" class="edge">
<title>src/components/form/index.js&#45;&gt;src/components/form/TextInput.jsx</title>
<path fill="none" stroke="#000000" stroke-width="2" stroke-opacity="0.200000" d="M303.17,-71C304.68,-71 306.21,-71 307.76,-71"/>
<polygon fill="#000000" fill-opacity="0.200000" stroke="#000000" stroke-width="2" stroke-opacity="0.200000" points="307.64,-73.1 313.64,-71 307.64,-68.9 307.64,-73.1"/>
</g>
<!-- src/index.css -->
<g id="node8" class="node">
<title>src/index.css</title>
<g id="a_node8"><a xlink:href="src/index.css" xlink:title="index.css">
<path fill="#ffffcc" stroke="black" d="M132,-135C132,-135 89,-135 89,-135 86,-135 83,-132 83,-129 83,-129 83,-123 83,-123 83,-120 86,-117 89,-117 89,-117 132,-117 132,-117 135,-117 138,-120 138,-123 138,-123 138,-129 138,-129 138,-132 135,-135 132,-135"/>
<text text-anchor="start" x="91" y="-123.8" font-family="Helvetica,sans-Serif" font-size="9.00">index.css</text>
</a>
</g>
</g>
<!-- src/main.jsx -->
<g id="node9" class="node">
<title>src/main.jsx</title>
<g id="a_node9"><a xlink:href="src/main.jsx" xlink:title="main.jsx">
<path fill="#ffff77" stroke="black" d="M64,-120C64,-120 22,-120 22,-120 19,-120 16,-117 16,-114 16,-114 16,-108 16,-108 16,-105 19,-102 22,-102 22,-102 64,-102 64,-102 67,-102 70,-105 70,-108 70,-108 70,-114 70,-114 70,-117 67,-120 64,-120"/>
<text text-anchor="start" x="26" y="-108.8" font-family="Helvetica,sans-Serif" font-size="9.00">main.jsx</text>
</a>
</g>
</g>
<!-- src/main.jsx&#45;&gt;src/App.jsx -->
<g id="edge7" class="edge">
<title>src/main.jsx&#45;&gt;src/App.jsx</title>
<path fill="none" stroke="#000000" stroke-width="2" stroke-opacity="0.200000" d="M70.26,-104.99C71.73,-104.65 73.22,-104.31 74.71,-103.97"/>
<polygon fill="#000000" fill-opacity="0.200000" stroke="#000000" stroke-width="2" stroke-opacity="0.200000" points="74.9,-106.08 80.28,-102.69 73.96,-101.98 74.9,-106.08"/>
</g>
<!-- src/main.jsx&#45;&gt;src/index.css -->
<g id="edge8" class="edge">
<title>src/main.jsx&#45;&gt;src/index.css</title>
<path fill="none" stroke="#000000" stroke-width="2" stroke-opacity="0.200000" d="M70.26,-117.01C71.55,-117.31 72.86,-117.61 74.17,-117.91"/>
<polygon fill="#000000" fill-opacity="0.200000" stroke="#000000" stroke-width="2" stroke-opacity="0.200000" points="73.53,-119.92 79.85,-119.21 74.47,-115.82 73.53,-119.92"/>
</g>
</g>
</svg>
